<?xml version="1.0" encoding="utf-8"?>
<!-- Generator: Adobe Illustrator 24.2.3, SVG Export Plug-In . SVG Version: 6.00 Build 0)  -->
<svg version="1.1" id="Layer_1" xmlns="http://www.w3.org/2000/svg" xmlns:xlink="http://www.w3.org/1999/xlink" x="0px" y="0px"
	 viewBox="0 0 1366 768" style="enable-background:new 0 0 1366 768;" xml:space="preserve">
<style type="text/css">
	.st0{fill:#28316B;}
</style>
<path class="st0" d="M232.97,274v62.61h63.58V274h17.16v149.64h-17.16v-70.16h-63.58v70.16H216V274H232.97z"/>
<path d="M404.07,377.74c0,30.96-17.52,47.37-38.9,47.37c-22.12,0-37.66-18.41-37.66-45.64c0-28.56,16.53-47.24,38.9-47.24
	C389.28,332.24,404.07,351.05,404.07,377.74z M339.07,379.21c0,19.21,9.69,36.43,26.72,36.43c17.15,0,26.84-16.95,26.84-37.36
	c0-17.88-8.7-36.56-26.72-36.56C348.02,341.71,339.07,359.46,339.07,379.21z"/>
<path d="M488.71,384.14c-0.62-12.54-1.37-27.62-1.24-38.83h-0.37c-2.86,10.54-6.34,21.75-10.56,34.16l-14.79,43.63h-8.2
	l-13.55-42.83c-3.98-12.68-7.33-24.29-9.69-34.96h-0.25c-0.25,11.21-0.87,26.29-1.62,39.76l-2.24,38.56h-10.32l5.84-89.94h13.8
	l14.29,43.5c3.48,11.08,6.34,20.95,8.45,30.29h0.37c2.11-9.07,5.1-18.95,8.82-30.29l14.91-43.5h13.8l5.22,89.94h-10.56
	L488.71,384.14z"/>
<path d="M561.42,381.48h-32.56v32.42h36.29v9.74h-47.1V333.7h45.24v9.74h-34.43v28.42h32.56V381.48z"/>
<path d="M605.54,334.91c6.59-1.07,14.42-1.87,22.99-1.87c15.54,0,26.6,3.87,33.93,11.21c7.46,7.34,11.81,17.75,11.81,32.29
	c0,14.68-4.23,26.69-12.06,34.96c-7.83,8.41-20.75,12.94-37.04,12.94c-7.71,0-14.17-0.4-19.64-1.07V334.91z M616.35,414.43
	c2.73,0.53,6.71,0.67,10.94,0.67c23.12,0,35.67-13.88,35.67-38.16c0.12-21.22-11.06-34.69-33.93-34.69c-5.59,0-9.82,0.53-12.68,1.2
	V414.43z"/>
<path d="M731.69,381.48h-32.56v32.42h36.29v9.74h-47.1V333.7h45.24v9.74h-34.43v28.42h32.56V381.48z"/>
<path d="M808,420.71c-3.98,2.13-11.93,4.27-22.12,4.27c-23.61,0-41.39-16.01-41.39-45.5c0-28.16,17.77-47.24,43.75-47.24
	c10.44,0,17.03,2.4,19.89,4l-2.61,9.47c-4.1-2.14-9.94-3.74-16.9-3.74c-19.64,0-32.69,13.48-32.69,37.1
	c0,22.02,11.81,36.16,32.19,36.16c6.59,0,13.3-1.47,17.65-3.74L808,420.71z"/>
<path d="M890.53,377.74c0,30.96-17.52,47.37-38.9,47.37c-22.12,0-37.66-18.41-37.66-45.64c0-28.56,16.53-47.24,38.9-47.24
	C875.74,332.24,890.53,351.05,890.53,377.74z M825.53,379.21c0,19.21,9.69,36.43,26.72,36.43c17.15,0,26.85-16.95,26.85-37.36
	c0-17.88-8.7-36.56-26.72-36.56C834.48,341.71,825.53,359.46,825.53,379.21z"/>
<path d="M904.58,334.91c5.47-1.2,13.3-1.87,20.76-1.87c11.56,0,19.01,2.27,24.23,7.34c4.23,4,6.59,10.14,6.59,17.08
	c0,11.88-6.96,19.75-15.78,22.95v0.4c6.46,2.4,10.32,8.81,12.3,18.15c2.73,12.54,4.72,21.22,6.46,24.69h-11.19
	c-1.37-2.54-3.23-10.27-5.59-21.48c-2.49-12.41-6.96-17.08-16.78-17.48h-10.19v38.96h-10.81V334.91z M915.39,375.87h11.06
	c11.56,0,18.89-6.81,18.89-17.08c0-11.61-7.83-16.68-19.26-16.81c-5.22,0-8.95,0.53-10.69,1.07V375.87z"/>
<rect x="775" y="155" transform="matrix(-1 -1.224647e-16 1.224647e-16 -1 1554.9999 479)" width="5" height="169"/>
<rect x="729.91" y="131.54" transform="matrix(0.866 -0.5 0.5 0.866 42.0462 424.9422)" width="168.14" height="4.94"/>
<rect x="874.43" y="132.03" transform="matrix(0.866 0.5 -0.5 0.866 195.6648 -461.2306)" width="168.14" height="4.94"/>
<rect x="991" y="155" transform="matrix(-1 -1.224647e-16 1.224647e-16 -1 1987 579)" width="5" height="269"/>
<g>
	<rect x="822" y="195" width="3.15" height="52.25"/>
	<rect x="824.1" y="195" width="37.8" height="4.13"/>
	<rect x="823.05" y="245.88" width="39.9" height="4.13"/>
	<rect x="860.85" y="195" width="3.15" height="52.25"/>
</g>
<g>
	<rect x="906.5" y="194" width="3.15" height="52.25"/>
	<rect x="908.6" y="194" width="37.8" height="4.13"/>
	<rect x="907.55" y="244.88" width="39.9" height="4.13"/>
	<rect x="945.35" y="194" width="3.15" height="52.25"/>
</g>
</svg>
